GIL03_slow3_ik
nRows=3
nColumns=375

# SIMM Motion File Header:
name GIL03_slow3_ik
datacolumns 375
datarows 3
otherdata 1
range 0.55833000 0.57500000
endheader
time	pelvis_tx	pelvis_ty	pelvis_tz	pelvis_tilt	pelvis_list	pelvis_rotation	hip_flexion_r	hip_adduction_r	hip_rotation_r	knee_angle_r	ankle_angle_r	hip_flexion_l	hip_adduction_l	hip_rotation_l	knee_angle_l	ankle_angle_l	lumbar_extension	lumbar_bending	lumbar_rotation	subtalar_angle_r	mtp_angle_r	subtalar_angle_l	mtp_angle_l	asis_r_px	asis_r_py	asis_r_pz	asis_l_px	asis_l_py	asis_l_pz	midasis_px	midasis_py	midasis_pz	psis_r_px	psis_r_py	psis_r_pz	psis_l_px	psis_l_py	psis_l_pz	hip_r_px	hip_r_py	hip_r_pz	hip_l_px	hip_l_py	hip_l_pz	midhip_px	midhip_py	midhip_pz	epicondLat_r_px	epicondLat_r_py	epicondLat_r_pz	epicondMed_r_px	epicondMed_r_py	epicondMed_r_pz	thighwand_r_px	thighwand_r_py	thighwand_r_pz	upperleg1_r_px	upperleg1_r_py	upperleg1_r_pz	upperleg2_r_px	upperleg2_r_py	upperleg2_r_pz	malleolusLat_r_px	malleolusLat_r_py	malleolusLat_r_pz	malleolusMedv_r_px	malleolusMedv_r_py	malleolusMedv_r_pz	shankwand_r_px	shankwand_r_py	shankwand_r_pz	lowerleg1_r_px	lowerleg1_r_py	lowerleg1_r_pz	knee_r_px	knee_r_py	knee_r_pz	ankle_r_px	ankle_r_py	ankle_r_pz	toe_r_px	toe_r_py	toe_r_pz	epicondLat_l_px	epicondLat_l_py	epicondLat_l_pz	epicondMed_l_px	epicondMed_l_py	epicondMed_l_pz	thighwand_l_px	thighwand_l_py	thighwand_l_pz	upperleg1_l_px	upperleg1_l_py	upperleg1_l_pz	upperleg2_l_px	upperleg2_l_py	upperleg2_l_pz	malleolusLat_l_px	malleolusLat_l_py	malleolusLat_l_pz	malleolusMedv_l_px	malleolusMedv_l_py	malleolusMedv_l_pz	shankwand_l_px	shankwand_l_py	shankwand_l_pz	lowerleg1_l_px	lowerleg1_l_py	lowerleg1_l_pz	knee_l_px	knee_l_py	knee_l_pz	ankle_l_px	ankle_l_py	ankle_l_pz	toe_l_px	toe_l_py	toe_l_pz	subclavicle_r_px	subclavicle_r_py	subclavicle_r_pz	subclavicle_l_px	subclavicle_l_py	subclavicle_l_pz	neck_px	neck_py	neck_pz	sternalnotch_px	sternalnotch_py	sternalnotch_pz	xyphoidprocess_px	xyphoidprocess_py	xyphoidprocess_pz	midhip_tx	midhip_ty	midhip_tz	hip_r_tx	hip_r_ty	hip_r_tz	hip_l_tx	hip_l_ty	hip_l_tz	knee_r_tx	knee_r_ty	knee_r_tz	knee_l_tx	knee_l_ty	knee_l_tz	ankle_r_tx	ankle_r_ty	ankle_r_tz	ankle_l_tx	ankle_l_ty	ankle_l_tz	midasis_tx	midasis_ty	midasis_tz	asis_r_tx	asis_r_ty	asis_r_tz	asis_l_tx	asis_l_ty	asis_l_tz	psis_r_tx	psis_r_ty	psis_r_tz	psis_l_tx	psis_l_ty	psis_l_tz	epicondLat_r_tx	epicondLat_r_ty	epicondLat_r_tz	epicondLat_l_tx	epicondLat_l_ty	epicondLat_l_tz	epicondMed_r_tx	epicondMed_r_ty	epicondMed_r_tz	epicondMed_l_tx	epicondMed_l_ty	epicondMed_l_tz	malleolusLat_r_tx	malleolusLat_r_ty	malleolusLat_r_tz	malleolusLat_l_tx	malleolusLat_l_ty	malleolusLat_l_tz	malleolusMedv_r_tx	malleolusMedv_r_ty	malleolusMedv_r_tz	malleolusMedv_l_tx	malleolusMedv_l_ty	malleolusMedv_l_tz	neck_tx	neck_ty	neck_tz	subclavicle_r_tx	subclavicle_r_ty	subclavicle_r_tz	subclavicle_l_tx	subclavicle_l_ty	subclavicle_l_tz	sternalnotch_tx	sternalnotch_ty	sternalnotch_tz	xyphoidprocess_tx	xyphoidprocess_ty	xyphoidprocess_tz	thighwand_r_tx	thighwand_r_ty	thighwand_r_tz	thighwand_l_tx	thighwand_l_ty	thighwand_l_tz	upperleg1_r_tx	upperleg1_r_ty	upperleg1_r_tz	upperleg1_l_tx	upperleg1_l_ty	upperleg1_l_tz	upperleg2_r_tx	upperleg2_r_ty	upperleg2_r_tz	upperleg2_l_tx	upperleg2_l_ty	upperleg2_l_tz	shankwand_r_tx	shankwand_r_ty	shankwand_r_tz	shankwand_l_tx	shankwand_l_ty	shankwand_l_tz	lowerleg1_r_tx	lowerleg1_r_ty	lowerleg1_r_tz	lowerleg1_l_tx	lowerleg1_l_ty	lowerleg1_l_tz	toe_r_tx	toe_r_ty	toe_r_tz	toe_l_tx	toe_l_ty	toe_l_tz	ground_force_vx	ground_force_vy	ground_force_vz	ground_force_px	ground_force_py	ground_force_pz	ground_force_vx	ground_force_vy	ground_force_vz	ground_force_px	ground_force_py	ground_force_pz	ground_torque_x	ground_torque_y	ground_torque_z	ground_torque_x	ground_torque_y	ground_torque_z	ground_marker_px	ground_marker_py	ground_marker_pz	ground_marker_px	ground_marker_py	ground_marker_pz	ground_marker_px	ground_marker_py	ground_marker_pz	ground_marker_px	ground_marker_py	ground_marker_pz	ground_marker_px	ground_marker_py	ground_marker_pz	ground_marker_px	ground_marker_py	ground_marker_pz	ground_marker_px	ground_marker_py	ground_marker_pz	ground_marker_px	ground_marker_py	ground_marker_pz	ground_marker_px	ground_marker_py	ground_marker_pz	ground_marker_px	ground_marker_py	ground_marker_pz	ground_marker_px	ground_marker_py	ground_marker_pz	ground_marker_px	ground_marker_py	ground_marker_pz	ground_marker_px	ground_marker_py	ground_marker_pz	ground_marker_px	ground_marker_py	ground_marker_pz	ground_marker_px	ground_marker_py	ground_marker_pz	ground_marker_px	ground_marker_py	ground_marker_pz	ground_marker_px	ground_marker_py	ground_marker_pz	ground_marker_px	ground_marker_py	ground_marker_pz	ground_marker_px	ground_marker_py	ground_marker_pz	ground_marker_px	ground_marker_py	ground_marker_pz	ground_marker_px	ground_marker_py	ground_marker_pz	ground_marker_px	ground_marker_py	ground_marker_pz	ground_marker_px	ground_marker_py	ground_marker_pz	ground_marker_px	ground_marker_py	ground_marker_pz	ground_marker_px	ground_marker_py	ground_marker_pz	ground_marker_px	ground_marker_py	ground_marker_pz	ground_marker_px	ground_marker_py	ground_marker_pz	ground_marker_px	ground_marker_py	ground_marker_pz	ground_marker_px	ground_marker_py	ground_marker_pz	ground_marker_px	ground_marker_py	ground_marker_pz	ground_marker_px	ground_marker_py	ground_marker_pz	ground_marker_px	ground_marker_py	ground_marker_pz	ground_marker_px	ground_marker_py	ground_marker_pz	ground_marker_px	ground_marker_py	ground_marker_pz	ground_marker_px	ground_marker_py	ground_marker_pz	ground_marker_px	ground_marker_py	ground_marker_pz	ground_marker_px	ground_marker_py	ground_marker_pz
      0.55833000	      0.94190168	      0.88891421	     -0.17728931	      0.64100552	     -0.34112411	     -0.38523835	     -4.46302688	      4.91152985	     -2.76616766	     -7.36602548	     10.90696316	     23.95617844	     -3.37394939	     -0.15702793	    -32.49644841	      6.07904474	     -8.63623827	      1.59365355	      2.92480267	      0.00000000	      0.00000000	      0.00000000	      0.00000000	      0.99017600	      0.89340339	     -0.08418437	      0.97370640	      0.88594106	     -0.28508097	      0.95293446	      0.88903809	     -0.17721512	      0.83297728	      0.94113197	     -0.14971301	      0.82819068	      0.93981697	     -0.20439453	      0.88632209	      0.83658467	     -0.11154813	      0.88721574	      0.83581103	     -0.24315944	      0.88676892	      0.83619785	     -0.17735378	      0.88447087	      0.44104319	     -0.07936542	      0.86345136	      0.44473143	     -0.18680357	      1.03295872	      0.59907866	     -0.13025604	      0.96480739	      0.65414942	     -0.07962003	      0.94641237	      0.57020037	     -0.08376082	      0.76356122	      0.05792777	     -0.13948585	      0.80325650	      0.07029582	     -0.20007127	      0.78098462	      0.17111266	     -0.05572864	      0.79025464	      0.18019083	     -0.09603611	      0.85832524	      0.46438523	     -0.14177331	      0.78131025	      0.07433321	     -0.17635159	      0.88642950	      0.03202504	     -0.11774937	      1.06176986	      0.49504163	     -0.32340224	      1.05526115	      0.47228011	     -0.21668586	      1.11255543	      0.69115903	     -0.24575162	      1.02885039	      0.70505504	     -0.30076616	      1.06349837	      0.62407607	     -0.29935468	      0.98030854	      0.08617742	     -0.32208855	      1.01099841	      0.09119003	     -0.26166704	      0.94869573	      0.21032670	     -0.37218161	      0.96968271	      0.21189284	     -0.33437852	      1.04511424	      0.49364017	     -0.26228653	      0.99017158	      0.09873461	     -0.27956200	      1.10307886	      0.05478406	     -0.33764493	      0.94296444	      1.28162369	     -0.11576507	      0.94123144	      1.28185972	     -0.22496650	      0.83731958	      1.32966188	     -0.16424720	      0.92620894	      1.28988313	     -0.17531371	      1.01260346	      1.13754621	     -0.17576772	      0.89398300	      0.84581000	     -0.18107000	      0.89289600	      0.82595100	     -0.11817000	      0.88359700	      0.82438500	     -0.23526300	      0.86587700	      0.45529900	     -0.14804200	      1.04038300	      0.48436900	     -0.25717100	      0.78523500	      0.06555300	     -0.17936300	      0.98649300	      0.08678200	     -0.27337500	      0.94969500	      0.90400000	     -0.17667300	      0.94915100	      0.90436900	     -0.07654800	      0.95024000	      0.90363100	     -0.27679800	      0.79397200	      0.93628800	     -0.15912400	      0.79575000	      0.93451600	     -0.21348300	      0.87188200	      0.45047300	     -0.09358400	      1.05165400	      0.49295600	     -0.30979600	      0.85678600	      0.45490500	     -0.19102700	      1.03197500	      0.46372800	     -0.21154400	      0.77447500	      0.06481000	     -0.14240500	      0.98845200	      0.08808300	     -0.31180300	      0.80443700	      0.07966300	     -0.20745000	      1.00689100	      0.09842900	     -0.24841200	      0.84454100	      1.34613800	     -0.16351800	      0.94435600	      1.27133000	     -0.11772900	      0.93707000	      1.26975100	     -0.22503000	      0.92551400	      1.28167200	     -0.17580000	      0.97452900	      1.11335300	     -0.17550400	      1.01565700	      0.61618800	     -0.12889300	      1.09340500	      0.68316100	     -0.22014300	      0.94523400	      0.66868100	     -0.08159200	      1.01922900	      0.70017700	     -0.28677400	      0.93071500	      0.58446900	     -0.08630900	      1.05302200	      0.61926900	     -0.28376600	      0.79137200	      0.17757300	     -0.06258500	      0.96582600	      0.21304400	     -0.36995500	      0.79748500	      0.18747800	     -0.10322800	      0.97950300	      0.21528500	     -0.32894600	      0.89609300	      0.03904400	     -0.14260200	      1.10690900	      0.05766800	     -0.29222600	      4.13512563	    387.21731171	    -12.06441869	      0.87378674	      0.00000000	     -0.13768938	      0.00000000	      0.00000000	      0.00000000	      1.18922119	      0.00000000	     -0.23089014	      0.00000000	      0.90875842	      0.00000000	      0.00000000	      0.00000000	      0.00000000	      0.89398265	      0.84580994	     -0.18107004	      0.89289588	      0.82595134	     -0.11817032	      0.88359731	      0.82438457	     -0.23526306	      0.86587739	      0.45529929	     -0.14804198	      1.04038346	      0.48436850	     -0.25717053	      0.78523499	      0.06555336	     -0.17936349	      0.98649281	      0.08678204	     -0.27337486	      0.94969535	      0.90400010	     -0.17667311	      0.94915068	      0.90436929	     -0.07654817	      0.95024002	      0.90363091	     -0.27679807	      0.79397184	      0.93628812	     -0.15912430	      0.79575002	      0.93451643	     -0.21348293	      0.87188238	      0.45047268	     -0.09358426	      1.05165434	      0.49295637	     -0.30979624	      0.85678589	      0.45490509	     -0.19102733	      1.03197491	      0.46372780	     -0.21154447	      0.77447456	      0.06480969	     -0.14240527	      0.98845243	      0.08808261	     -0.31180292	      0.80443728	      0.07966293	     -0.20744988	      1.00689065	      0.09842931	     -0.24841239	      0.84454149	      1.34613752	     -0.16351807	      0.94435644	      1.27132964	     -0.11772892	      0.93706989	      1.26975083	     -0.22502987	      0.92551428	      1.28167164	     -0.17579968	      0.97452915	      1.11335349	     -0.17550401	      1.01565683	      0.61618781	     -0.12889339	      1.09340513	      0.68316150	     -0.22014338	      0.94523382	      0.66868079	     -0.08159163	      1.01922870	      0.70017684	     -0.28677353	      0.93071502	      0.58446932	     -0.08630896	      1.05302215	      0.61926895	     -0.28376582	      0.79137242	      0.17757325	     -0.06258477	      0.96582574	      0.21304436	     -0.36995462	      0.79748458	      0.18747771	     -0.10322770	      0.97950327	      0.21528469	     -0.32894576	      0.89609301	      0.03904351	     -0.14260165	      1.10690868	      0.05766757	     -0.29222620
      0.56667000	      0.94669980	      0.88838489	     -0.17693870	      0.73587389	     -0.39955484	     -0.51777062	     -5.01926403	      4.99091532	     -2.78405329	     -7.13500811	     11.03692408	     23.85357269	     -3.34661660	      0.02279512	    -30.70983518	      5.74244725	     -8.70859426	      1.55455975	      3.54445184	      0.00000000	      0.00000000	      0.00000000	      0.00000000	      0.99474987	      0.89304694	     -0.08372631	      0.97876008	      0.88535820	     -0.28465314	      0.95773216	      0.88852728	     -0.17683899	      0.83762453	      0.94044774	     -0.14966756	      0.83296733	      0.93907061	     -0.20435873	      0.89105490	      0.83602761	     -0.11127491	      0.89225596	      0.83512517	     -0.24288295	      0.89165543	      0.83557639	     -0.17707893	      0.88592972	      0.44049991	     -0.07927820	      0.86524116	      0.44440392	     -0.18677294	      1.03582667	      0.59735687	     -0.12968163	      0.96797948	      0.65295254	     -0.07921104	      0.94892095	      0.56915612	     -0.08344154	      0.76370315	      0.05802740	     -0.13983685	      0.80363585	      0.07024646	     -0.20029635	      0.78132344	      0.17112525	     -0.05600329	      0.79075507	      0.18017350	     -0.09627998	      0.86011420	      0.46409929	     -0.14174878	      0.78163259	      0.07436797	     -0.17664406	      0.88646016	      0.03187810	     -0.11765211	      1.06714495	      0.49429880	     -0.32214871	      1.06005534	      0.47155049	     -0.21546653	      1.11756613	      0.69041040	     -0.24424639	      1.03416243	      0.70432375	     -0.29971236	      1.06877980	      0.62333532	     -0.29810578	      0.99802861	      0.08382923	     -0.32149119	      1.02813606	      0.08975357	     -0.26085954	      0.96294191	      0.20697113	     -0.37175774	      0.98361206	      0.20916355	     -0.33381149	      1.04981840	      0.49306512	     -0.26111108	      1.00720892	      0.09666161	     -0.27889398	      1.12161618	      0.05554000	     -0.33610696	      0.94797324	      1.28102155	     -0.11640423	      0.94531530	      1.28123888	     -0.22558710	      0.84189067	      1.32898409	     -0.16399737	      0.93070870	      1.28926064	     -0.17581011	      1.01719428	      1.13697915	     -0.17697209	      0.89894700	      0.84526600	     -0.18096900	      0.89771900	      0.82562300	     -0.11785400	      0.88865800	      0.82389300	     -0.23496300	      0.86774200	      0.45516800	     -0.14789600	      1.04536200	      0.48387800	     -0.25596200	      0.78555500	      0.06573100	     -0.17951800	      1.00375700	      0.08436200	     -0.27270900	      0.95451500	      0.90368500	     -0.17634200	      0.95376900	      0.90418100	     -0.07627800	      0.95526100	      0.90318900	     -0.27640700	      0.79891600	      0.93576200	     -0.15908500	      0.80063100	      0.93386000	     -0.21349500	      0.87357200	      0.45027900	     -0.09342500	      1.05689800	      0.49244200	     -0.30853400	      0.85980100	      0.45481300	     -0.19103800	      1.03657500	      0.46309900	     -0.21047700	      0.77462800	      0.06504000	     -0.14260800	      1.00573400	      0.08576700	     -0.31113300	      0.80478300	      0.07981900	     -0.20756600	      1.02355900	      0.09664900	     -0.24768900	      0.84982400	      1.34571700	     -0.16358900	      0.94641100	      1.26951000	     -0.11802300	      0.94207500	      1.26915700	     -0.22524500	      0.93049400	      1.28104700	     -0.17593900	      0.97582500	      1.11170500	     -0.17652700	      1.01894800	      0.61506400	     -0.12830500	      1.09810500	      0.68251200	     -0.21879500	      0.94855300	      0.66823100	     -0.08121500	      1.02419700	      0.69957100	     -0.28567300	      0.93377700	      0.58413000	     -0.08600500	      1.05794500	      0.61866500	     -0.28256600	      0.79165900	      0.17779300	     -0.06267100	      0.97928000	      0.21007000	     -0.36936700	      0.79789100	      0.18777900	     -0.10325700	      0.99275400	      0.21274000	     -0.32833500	      0.89620500	      0.03904300	     -0.14256000	      1.12492300	      0.05829100	     -0.29099900	      5.10156631	    386.72698969	    -12.28789340	      0.87564838	      0.00000000	     -0.13740904	      0.00000000	      0.00000000	      0.00000000	      1.19235388	      0.00000000	     -0.23131744	      0.00000000	      1.01384717	      0.00000000	      0.00000000	      0.00000000	      0.00000000	      0.89894664	      0.84526610	     -0.18096949	      0.89771903	      0.82562333	     -0.11785389	      0.88865823	      0.82389271	     -0.23496297	      0.86774194	      0.45516765	     -0.14789605	      1.04536152	      0.48387843	     -0.25596198	      0.78555489	      0.06573077	     -0.17951803	      1.00375736	      0.08436184	     -0.27270916	      0.95451534	      0.90368521	     -0.17634238	      0.95376933	      0.90418106	     -0.07627818	      0.95526129	      0.90318930	     -0.27640659	      0.79891616	      0.93576187	     -0.15908529	      0.80063105	      0.93386036	     -0.21349528	      0.87357163	      0.45027855	     -0.09342487	      1.05689847	      0.49244225	     -0.30853397	      0.85980082	      0.45481303	     -0.19103758	      1.03657496	      0.46309945	     -0.21047749	      0.77462792	      0.06503971	     -0.14260770	      1.00573409	      0.08576665	     -0.31113270	      0.80478275	      0.07981851	     -0.20756650	      1.02355897	      0.09664942	     -0.24768932	      0.84982419	      1.34571671	     -0.16358928	      0.94641107	      1.26951027	     -0.11802273	      0.94207478	      1.26915705	     -0.22524536	      0.93049389	      1.28104711	     -0.17593865	      0.97582537	      1.11170495	     -0.17652653	      1.01894760	      0.61506402	     -0.12830499	      1.09810519	      0.68251151	     -0.21879511	      0.94855344	      0.66823125	     -0.08121477	      1.02419698	      0.69957107	     -0.28567296	      0.93377697	      0.58412957	     -0.08600506	      1.05794466	      0.61866528	     -0.28256622	      0.79165912	      0.17779341	     -0.06267058	      0.97927952	      0.21007016	     -0.36936745	      0.79789078	      0.18777858	     -0.10325677	      0.99275446	      0.21274033	     -0.32833520	      0.89620489	      0.03904293	     -0.14256014	      1.12492323	      0.05829126	     -0.29099944
      0.57500000	      0.95162576	      0.88784434	     -0.17660529	      0.83931330	     -0.47974168	     -0.66266447	     -5.58203373	      5.08692418	     -2.78591404	     -6.92449429	     11.17177806	     23.71607438	     -3.35678592	      0.19058405	    -28.94031719	      5.41450926	     -8.87921327	      1.58446850	      3.68919614	      0.00000000	      0.00000000	      0.00000000	      0.00000000	      0.99942949	      0.89272113	     -0.08327730	      0.98396596	      0.88472948	     -0.28423350	      0.96265755	      0.88800702	     -0.17647768	      0.84238659	      0.93974499	     -0.14968320	      0.83787134	      0.93828484	     -0.20438411	      0.89590919	      0.83547501	     -0.11101190	      0.89744737	      0.83439548	     -0.24261511	      0.89667828	      0.83493525	     -0.17681350	      0.88753862	      0.43998823	     -0.07919435	      0.86718158	      0.44409963	     -0.18674464	      1.03882245	      0.59566368	     -0.12911492	      0.97128068	      0.65177919	     -0.07881026	      0.95156590	      0.56813922	     -0.08312872	      0.76388486	      0.05818499	     -0.14018022	      0.80405520	      0.07024071	     -0.20051496	      0.78173704	      0.17119236	     -0.05627374	      0.79133115	      0.18020607	     -0.09651979	      0.86205671	      0.46383633	     -0.14172731	      0.78199756	      0.07445364	     -0.17692952	      0.88652401	      0.03176435	     -0.11754850	      1.07249965	      0.49344758	     -0.32099278	      1.06484431	      0.47070034	     -0.21434948	      1.12265846	      0.68952030	     -0.24282370	      1.03955155	      0.70349513	     -0.29871804	      1.07410249	      0.62248200	     -0.29693647	      1.01547820	      0.08178379	     -0.32088557	      1.04499398	      0.08858129	     -0.26005493	      0.97702824	      0.20383854	     -0.37134316	      0.99737289	      0.20663318	     -0.33326081	      1.05451478	      0.49236310	     -0.26003550	      1.02398726	      0.09486496	     -0.27822471	      1.13978026	      0.05654446	     -0.33458829	      0.95313862	      1.28027230	     -0.11650324	      0.95049636	      1.28044167	     -0.22568658	      0.84711526	      1.32832857	     -0.16413377	      0.93589149	      1.28850257	     -0.17591540	      1.02221075	      1.13612613	     -0.17699419	      0.90384700	      0.84456800	     -0.18089500	      0.90255000	      0.82525600	     -0.11752700	      0.89374300	      0.82331700	     -0.23465200	      0.86967800	      0.45504100	     -0.14771400	      1.05025400	      0.48324300	     -0.25486600	      0.78588800	      0.06591800	     -0.17969000	      1.02076700	      0.08220500	     -0.27196200	      0.95933100	      0.90332400	     -0.17602300	      0.95837100	      0.90398300	     -0.07601600	      0.96029200	      0.90266500	     -0.27602900	      0.80386500	      0.93515900	     -0.15909900	      0.80550600	      0.93309800	     -0.21355000	      0.87533900	      0.45009500	     -0.09323000	      1.06204100	      0.49178900	     -0.30738500	      0.86245600	      0.45479800	     -0.19082500	      1.04115500	      0.46218700	     -0.20961800	      0.77479300	      0.06527800	     -0.14282800	      1.02273300	      0.08369800	     -0.31038300	      0.80527300	      0.08000500	     -0.20764100	      1.03998500	      0.09514400	     -0.24683800	      0.85514700	      1.34524000	     -0.16367500	      0.95192400	      1.26892600	     -0.11796600	      0.94719800	      1.26844400	     -0.22540800	      0.93553700	      1.28032700	     -0.17609600	      0.98097100	      1.11101900	     -0.17649600	      1.02229000	      0.61396300	     -0.12770300	      1.10284200	      0.68169200	     -0.21753000	      0.95199800	      0.66774600	     -0.08075300	      1.02920000	      0.69878700	     -0.28459100	      0.93680300	      0.58374300	     -0.08558300	      1.06289500	      0.61777900	     -0.28146900	      0.79197100	      0.17801900	     -0.06275600	      0.99251300	      0.20726000	     -0.36871000	      0.79830900	      0.18811400	     -0.10332500	      1.00587100	      0.21028800	     -0.32770100	      0.89631900	      0.03903900	     -0.14251700	      1.14259600	      0.05913500	     -0.28978300	      6.07092602	    386.20332720	    -12.69199734	      0.87747083	      0.00000000	     -0.13714493	      0.00000000	      0.00000000	      0.00000000	      1.19547839	      0.00000000	     -0.23181241	      0.00000000	      1.11575024	      0.00000000	      0.00000000	      0.00000000	      0.00000000	      0.90384650	      0.84456831	     -0.18089485	      0.90255022	      0.82525635	     -0.11752714	      0.89374316	      0.82331657	     -0.23465230	      0.86967832	      0.45504054	     -0.14771396	      1.05025351	      0.48324290	     -0.25486591	      0.78588796	      0.06591842	     -0.17968960	      1.02076733	      0.08220492	     -0.27196175	      0.95933104	      0.90332401	     -0.17602281	      0.95837057	      0.90398294	     -0.07601633	      0.96029156	      0.90266514	     -0.27602929	      0.80386484	      0.93515927	     -0.15909915	      0.80550599	      0.93309832	     -0.21355048	      0.87533879	      0.45009542	     -0.09322997	      1.06204093	      0.49178943	     -0.30738506	      0.86245573	      0.45479754	     -0.19082460	      1.04115534	      0.46218723	     -0.20961840	      0.77479315	      0.06527848	     -0.14282845	      1.02273262	      0.08369826	     -0.31038257	      0.80527306	      0.08000456	     -0.20764068	      1.03998470	      0.09514429	     -0.24683756	      0.85514665	      1.34524035	     -0.16367494	      0.95192420	      1.26892591	     -0.11796551	      0.94719762	      1.26844394	     -0.22540759	      0.93553716	      1.28032708	     -0.17609552	      0.98097116	      1.11101925	     -0.17649616	      1.02228999	      0.61396343	     -0.12770347	      1.10284185	      0.68169224	     -0.21753044	      0.95199752	      0.66774637	     -0.08075325	      1.02920032	      0.69878662	     -0.28459129	      0.93680298	      0.58374256	     -0.08558314	      1.06289518	      0.61777896	     -0.28146926	      0.79197139	      0.17801894	     -0.06275579	      0.99251318	      0.20725974	     -0.36871001	      0.79830933	      0.18811437	     -0.10332514	      1.00587142	      0.21028818	     -0.32770088	      0.89631921	      0.03903903	     -0.14251707	      1.14259624	      0.05913465	     -0.28978336
